:SAMPLES-PER-SECOND 30
:FULLY-SPECIFIED
:DEGREES
696
root  25.2242 38.5063 1.45839 156.956 -80.3297 -163.604
RightUpLeg  -3.2182 -9.91417 2.56704
RightLeg  22.4983 -0.576066 0.488022
RightFoot  -11.5916 -0.0863966 -3.65001
RightToes  4.6566e-010 0 -3.6325e-017
Spine  6.50054 -2.61777 8.40672
Spine1  9.19779 -2.43096 3.92801
HEad  1.17143 -23.3374 -9.03362
LeftShoulder1  -0.0117697 3.53352 -33.5175
LeftArm  -8.14326 5.55882 -34.7241
LeftForeArm  41.6531 -76.6701 -52.0881
LeftHand  0.0130836 -1.5951 -0.0654371
RightShoulder  -0.886608 -5.91043 30.2315
RightArm  -3.77526 -17.1336 26.6606
RightForeArm  116.447 74.5072 135.647
RightHand  -0.723512 10.233 -5.76289
LeftUpLeg  -15.9068 -0.354727 3.51037
LeftLeg  56.209 -3.66782 -5.38244
LeftFoot  2.48466 0.46017 -3.94009
LeftToes  -4.59298e-010 2.08438e-011 -1.27151e-011
697
root  23.9996 38.6463 1.12296 161.933 -81.4011 -168.528
RightUpLeg  -0.249851 -10.5215 0.947928
RightLeg  20.9564 -0.666848 0.913272
RightFoot  -13.046 -0.141428 -3.56635
RightToes  4.6566e-010 0 -3.6325e-017
Spine  6.01268 -2.35006 8.26635
Spine1  9.35145 -1.974 2.42673
HEad  1.15265 -24.136 -9.51718
LeftShoulder1  -0.00724162 3.52197 -33.5213
LeftArm  -9.33493 5.9557 -34.122
LeftForeArm  41.1564 -76.6223 -51.9188
LeftHand  -0.00340327 -0.942633 0.15627
RightShoulder  -0.834027 -5.79437 29.7949
RightArm  -3.21277 -16.2748 27.9987
RightForeArm  116.954 74.6997 135.139
RightHand  -0.736074 10.3682 -5.81155
LeftUpLeg  -17.8687 -1.14629 1.79129
LeftLeg  48.1301 -4.43404 -4.90826
LeftFoot  0.442644 0.3856 -3.74293
LeftToes  -4.59298e-010 2.08438e-011 -1.27151e-011
698
root  22.7993 38.7739 0.763981 166.214 -81.4258 -172.838
RightUpLeg  2.93498 -10.1699 0.176204
RightLeg  18.8408 -0.79826 1.02463
RightFoot  -13.8837 -0.171814 -3.51248
RightToes  4.6566e-010 0 -3.6325e-017
Spine  5.67345 -1.75274 8.74062
Spine1  9.76908 -1.00445 0.121169
HEad  1.11986 -25.1373 -9.69554
LeftShoulder1  -0.000619014 3.50449 -33.322
LeftArm  -10.4002 5.93127 -33.5095
LeftForeArm  39.1666 -76.3383 -50.5924
LeftHand  0.0295566 -1.14817 -0.421803
RightShoulder  -0.834705 -5.77704 30.0807
RightArm  -2.64502 -15.3291 28.9015
RightForeArm  117.074 74.8733 134.609
RightHand  -0.764354 10.2306 -6.06753
LeftUpLeg  -18.3023 -0.146878 0.74348
LeftLeg  37.4933 -4.90386 -3.64667
LeftFoot  -0.423415 0.230044 -2.39382
LeftToes  -4.59298e-010 2.08438e-011 -1.27151e-011
699
root  21.6201 38.8582 0.387793 168.873 -81.5388 -175.205
RightUpLeg  5.95195 -9.56478 -0.0729621
RightLeg  16.2507 -1.33726 0.997584
RightFoot  -14.5481 -0.18586 -3.13745
RightToes  4.6566e-010 0 -3.6325e-017
Spine  5.19692 -1.10478 8.38782
Spine1  10.1485 -0.366328 -0.858594
HEad  1.3358 -25.762 -10.1461
LeftShoulder1  -0.0704759 3.67961 -33.9225
LeftArm  -11.4105 5.46738 -32.7314
LeftForeArm  35.9376 -75.7146 -47.5918
LeftHand  0.0536296 -0.910877 -0.894816
RightShoulder  -0.745543 -5.56418 29.5262
RightArm  -2.06218 -14.9909 30.3854
RightForeArm  117.561 74.9186 134.557
RightHand  -0.795964 9.98838 -6.38931
LeftUpLeg  -17.9184 1.63869 -0.0304313
LeftLeg  24.6311 -6.00303 -2.65532
LeftFoot  -0.783828 0.275391 -2.92487
LeftToes  -4.59298e-010 2.08438e-011 -1.27151e-011
700
root  20.4046 38.8724 0.0730599 171.219 -82.6745 -177.151
RightUpLeg  9.01986 -9.37346 -0.494632
RightLeg  13.622 -2.39736 1.10173
RightFoot  -15.4011 -0.188377 -2.37236
RightToes  4.6566e-010 0 -3.6325e-017
Spine  4.08002 -1.02123 8.09902
Spine1  11.2092 -0.143016 -2.28427
HEad  1.33583 -26.5608 -10.2697
LeftShoulder1  -0.00234731 3.50985 -33.5281
LeftArm  -12.2994 5.6695 -32.7687
LeftForeArm  33.7683 -75.2751 -45.7794
LeftHand  0.040658 -0.650789 -0.709562
RightShoulder  -0.779214 -5.64278 29.7787
RightArm  -1.63575 -14.1782 31.4381
RightForeArm  117.635 75.0621 134.101
RightHand  -0.746721 9.71576 -6.11988
LeftUpLeg  -16.6758 1.96354 -1.24824
LeftLeg  10.3556 -6.35086 -1.28647
LeftFoot  -0.881919 0.399196 -4.30293
LeftToes  -4.59298e-010 2.08438e-011 -1.27151e-011
701
root  19.1767 38.75 -0.191132 165.599 -84.8118 -171.304
RightUpLeg  12.276 -9.40831 -0.346659
RightLeg  11.3198 -4.24295 1.58446
RightFoot  -16.4531 -0.180609 -1.55586
RightToes  4.6566e-010 0 -3.6325e-017
Spine  3.5981 -1.7057 7.52143
Spine1  11.5843 -0.929573 -2.61588
HEad  1.70476 -27.0697 -10.6554
LeftShoulder1  -0.0954372 3.74472 -33.4898
LeftArm  -13.1428 6.20185 -32.4554
LeftForeArm  32.2688 -75.0853 -45.2504
LeftHand  0.0935649 -0.938818 -1.62931
RightShoulder  -0.709894 -5.45877 29.6267
RightArm  -1.3019 -13.743 32.8306
RightForeArm  119.039 75.2562 133.735
RightHand  -0.673188 8.96626 -5.81877
LeftUpLeg  -15.9248 0.746994 -1.82255
LeftLeg  -0.77637 -5.0185 -0.628052
LeftFoot  -1.98188 0.488345 -5.86336
LeftToes  -4.59298e-010 2.08438e-011 -1.27151e-011
702
root  17.7799 38.4221 -0.365915 142.655 -88.0099 -147.799
RightUpLeg  14.8208 -10.2936 -0.589925
RightLeg  10.6834 -6.23817 2.54286
RightFoot  -18.5437 -0.17733 -0.833553
RightToes  4.6566e-010 0 -3.6325e-017
Spine  2.29159 -2.85816 7.34216
Spine1  11.8534 -2.1425 -3.12413
HEad  2.46323 -27.9641 -10.7761
LeftShoulder1  -0.100776 3.75945 -33.2793
LeftArm  -13.6889 6.79965 -32.026
LeftForeArm  32.9933 -75.3641 -46.5443
LeftHand  0.0727868 -0.450076 -1.40853
RightShoulder  -0.748513 -5.53977 30.0963
RightArm  -1.0195 -13.7004 33.3966
RightForeArm  119.595 75.2905 133.734
RightHand  -0.60964 9.33504 -5.18615
LeftUpLeg  -16.929 -0.884692 -3.37104
LeftLeg  -5.02974 -2.54043 -0.255282
LeftFoot  -3.96505 0.506508 -7.36312
LeftToes  -4.59298e-010 2.08438e-011 -1.27151e-011
703
root  16.3346 38.0687 -0.654399 115.142 -89.3126 -121.166
RightUpLeg  18.4237 -11.2038 -1.44552
RightLeg  11.0456 -5.99213 2.84842
RightFoot  -20.6298 -0.106282 0.406457
RightToes  4.6566e-010 0 -3.6325e-017
Spine  2.96406 -2.83774 5.66802
Spine1  12.1811 -2.21979 -2.47692
HEad  2.68771 -29.5915 -11.3228
LeftShoulder1  -0.148567 3.87916 -33.4654
LeftArm  -13.6642 6.32212 -31.4161
LeftForeArm  31.9686 -75.2308 -46.138
LeftHand  0.0878983 -0.763636 -1.59325
RightShoulder  -0.781196 -5.61934 30.2728
RightArm  -1.0113 -14.4866 33.7402
RightForeArm  120.425 75.082 134.587
RightHand  -0.659012 9.02483 -5.67941
LeftUpLeg  -17.0765 -1.59551 -4.523
LeftLeg  -2.31947 1.75143 -0.583303
LeftFoot  -3.41416 0.415217 -5.93938
LeftToes  -4.59298e-010 2.08438e-011 -1.27151e-011
